<svg width="194" height="74" viewBox="0 0 194 74" fill="none" xmlns="http://www.w3.org/2000/svg">
<g clip-path="url(#clip0_51_297)">
<path d="M21.86 7.68003L17.55 15.32C17.55 15.32 16.74 15.76 16.55 14.66C16.55 14.66 15.68 8.15003 11.8 8.15003C11.8 8.15003 6.46994 8.15003 6.46994 21.53C6.46994 21.53 6.23994 32.2101 13.4099 32.2101C13.4099 32.2101 18.7499 32.94 21.5299 24.97C21.5299 24.97 22.1799 23.8 22.7699 25.12C22.7699 25.12 22.3999 38.57 11.7699 39C11.7699 39 0.0699463 38.79 0.0699463 23.29C0.0699463 23.29 0.0699339 10.7101 9.86993 5.74005C9.86993 5.74005 15.7899 3.40005 21.2699 6.74005C21.2699 6.74005 22.0799 7.32004 21.9299 7.69004" fill="#1D1D1B"/>
<path d="M21.86 7.68003L17.55 15.32C17.55 15.32 16.74 15.76 16.55 14.66C16.55 14.66 15.68 8.15003 11.8 8.15003C11.8 8.15003 6.46994 8.15003 6.46994 21.53C6.46994 21.53 6.23994 32.2101 13.4099 32.2101C13.4099 32.2101 18.7499 32.94 21.5299 24.97C21.5299 24.97 22.1799 23.8 22.7699 25.12C22.7699 25.12 22.3999 38.57 11.7699 39C11.7699 39 0.0699463 38.79 0.0699463 23.29C0.0699463 23.29 0.0699339 10.7101 9.86993 5.74005C9.86993 5.74005 15.7899 3.40005 21.2699 6.74005C21.2699 6.74005 22.0799 7.32004 21.9299 7.69004" fill="#1D1D1B"/>
<path d="M69.8 7.75995L65.48 15.4399C65.48 15.4399 64.68 15.8799 64.48 14.7799C64.48 14.7799 63.6 8.27994 59.73 8.27994C59.73 8.27994 54.39 8.27995 54.39 21.6599C54.39 21.6599 54.17 32.33 61.39 32.33C61.39 32.33 66.72 33.0599 69.5 25.0899C69.5 25.0899 70.16 23.92 70.74 25.24C70.74 25.24 70.38 38.6899 59.74 39.1299C59.74 39.1299 48.04 38.9099 48.04 23.4099C48.04 23.4099 48.04 10.83 57.84 5.85996C57.84 5.85996 63.77 3.51994 69.25 6.80994C69.25 6.80994 70.05 7.39995 69.91 7.75995" fill="#1D1D1B"/>
<path d="M69.8 7.75995L65.48 15.4399C65.48 15.4399 64.68 15.8799 64.48 14.7799C64.48 14.7799 63.6 8.27994 59.73 8.27994C59.73 8.27994 54.39 8.27995 54.39 21.6599C54.39 21.6599 54.17 32.33 61.39 32.33C61.39 32.33 66.72 33.0599 69.5 25.0899C69.5 25.0899 70.16 23.92 70.74 25.24C70.74 25.24 70.38 38.6899 59.74 39.1299C59.74 39.1299 48.04 38.9099 48.04 23.4099C48.04 23.4099 48.04 10.83 57.84 5.85996C57.84 5.85996 63.77 3.51994 69.25 6.80994C69.25 6.80994 70.05 7.39995 69.91 7.75995" fill="#1D1D1B"/>
<path d="M94.66 7.75995L90.34 15.4399C90.34 15.4399 89.54 15.8799 89.34 14.7799C89.34 14.7799 88.46 8.27994 84.59 8.27994C84.59 8.27994 79.25 8.27995 79.25 21.6599C79.25 21.6599 79.03 32.33 86.2 32.33C86.2 32.33 91.53 33.0599 94.31 25.0899C94.31 25.0899 94.97 23.92 95.56 25.24C95.56 25.24 95.19 38.6899 84.56 39.1299C84.56 39.1299 72.86 38.9099 72.86 23.4099C72.86 23.4099 72.86 10.83 82.65 5.85996C82.65 5.85996 88.58 3.51994 94.05 6.80994C94.05 6.80994 94.87 7.39995 94.72 7.75995" fill="#1D1D1B"/>
<path d="M94.66 7.75995L90.34 15.4399C90.34 15.4399 89.54 15.8799 89.34 14.7799C89.34 14.7799 88.46 8.27994 84.59 8.27994C84.59 8.27994 79.25 8.27995 79.25 21.6599C79.25 21.6599 79.03 32.33 86.2 32.33C86.2 32.33 91.53 33.0599 94.31 25.0899C94.31 25.0899 94.97 23.92 95.56 25.24C95.56 25.24 95.19 38.6899 84.56 39.1299C84.56 39.1299 72.86 38.9099 72.86 23.4099C72.86 23.4099 72.86 10.83 82.65 5.85996C82.65 5.85996 88.58 3.51994 94.05 6.80994C94.05 6.80994 94.87 7.39995 94.72 7.75995" fill="#1D1D1B"/>
<path d="M39.95 5.32005C39.95 5.32005 42.29 5.71004 43.31 3.90004C43.31 3.90004 43.9 3.08004 44.48 4.15004L46.43 13.56C46.43 13.56 46.43 15.02 45.12 13.75C45.12 13.75 40.82 7.22005 33.81 8.10005C33.81 8.10005 32.34 8.10005 32.34 9.10005V18.4601C32.34 18.4601 32.34 18.91 33.02 18.91H39.12C39.12 18.91 41.02 18.81 42.87 15.59C42.87 15.59 43.36 14.77 43.75 15.59V25.1C43.75 25.1 43.51 25.87 42.92 25C42.5317 24.3021 42.0079 23.6888 41.3794 23.196C40.7509 22.7032 40.0304 22.3408 39.26 22.13H32.98C32.98 22.13 32.34 22.3201 32.34 22.8001V34.6C32.416 34.95 32.6156 35.2608 32.902 35.4757C33.1885 35.6905 33.5428 35.7951 33.9 35.7701C33.9 35.7701 40.63 36.94 46.19 29.19C46.19 29.19 47.01 28.19 47.36 29.53L44.53 39.19C44.4579 39.298 44.3584 39.3847 44.2416 39.4414C44.1248 39.498 43.9951 39.5225 43.8657 39.5123C43.7363 39.5021 43.612 39.4576 43.5055 39.3834C43.3991 39.3092 43.3143 39.2079 43.26 39.09C43.0116 38.8118 42.7009 38.5961 42.3534 38.4606C42.0059 38.3251 41.6312 38.2735 41.26 38.31H23.91C23.91 38.31 22.69 37.9701 24.01 37.1401C24.4684 36.8413 24.8654 36.4577 25.18 36.0101C25.299 35.6013 25.3464 35.175 25.32 34.75V8.82005C25.3002 8.3648 25.1112 7.93334 24.79 7.61006C24.285 7.11246 23.7286 6.66996 23.13 6.29005C23.13 6.29005 22.35 5.56005 23.28 5.29005L39.95 5.32005Z" fill="#1D1D1B"/>
<path d="M39.95 5.32005C39.95 5.32005 42.29 5.71004 43.31 3.90004C43.31 3.90004 43.9 3.08004 44.48 4.15004L46.43 13.56C46.43 13.56 46.43 15.02 45.12 13.75C45.12 13.75 40.82 7.22005 33.81 8.10005C33.81 8.10005 32.34 8.10005 32.34 9.10005V18.4601C32.34 18.4601 32.34 18.91 33.02 18.91H39.12C39.12 18.91 41.02 18.81 42.87 15.59C42.87 15.59 43.36 14.77 43.75 15.59V25.1C43.75 25.1 43.51 25.87 42.92 25C42.5317 24.3021 42.0079 23.6888 41.3794 23.196C40.7509 22.7032 40.0304 22.3408 39.26 22.13H32.98C32.98 22.13 32.34 22.3201 32.34 22.8001V34.6C32.416 34.95 32.6156 35.2608 32.902 35.4757C33.1885 35.6905 33.5428 35.7951 33.9 35.7701C33.9 35.7701 40.63 36.94 46.19 29.19C46.19 29.19 47.01 28.19 47.36 29.53L44.53 39.19C44.4579 39.298 44.3584 39.3847 44.2416 39.4414C44.1248 39.498 43.9951 39.5225 43.8657 39.5123C43.7363 39.5021 43.612 39.4576 43.5055 39.3834C43.3991 39.3092 43.3143 39.2079 43.26 39.09C43.0116 38.8118 42.7009 38.5961 42.3534 38.4606C42.0059 38.3251 41.6312 38.2735 41.26 38.31H23.91C23.91 38.31 22.69 37.9701 24.01 37.1401C24.4684 36.8413 24.8654 36.4577 25.18 36.0101C25.299 35.6013 25.3464 35.175 25.32 34.75V8.82005C25.3002 8.3648 25.1112 7.93334 24.79 7.61006C24.285 7.11246 23.7286 6.66996 23.13 6.29005C23.13 6.29005 22.35 5.56005 23.28 5.29005L39.95 5.32005Z" fill="#1D1D1B"/>
<path d="M115.09 32.39C114.831 33.5404 114.22 34.5815 113.342 35.3683C112.464 36.1552 111.362 36.6486 110.19 36.78H110.07C108.898 36.6486 107.796 36.1552 106.918 35.3683C106.04 34.5815 105.429 33.5404 105.17 32.39V11.48C105.429 10.3296 106.04 9.28852 106.918 8.50168C107.796 7.71484 108.898 7.22137 110.07 7.09H110.19C111.362 7.22137 112.464 7.71484 113.342 8.50168C114.22 9.28852 114.831 10.3296 115.09 11.48V32.39ZM123.09 22.08V21.79C123.081 20.4518 122.984 19.1155 122.8 17.79C122.444 15.1947 121.492 12.7169 120.02 10.55C115.63 4.63002 110.22 4.63 110.22 4.63H110.08C110.08 4.63 104.66 4.63002 100.28 10.55C98.8078 12.7169 97.8564 15.1947 97.5 17.79C97.3106 19.115 97.2137 20.4516 97.21 21.79V22.08C97.2142 23.4184 97.3111 24.755 97.5 26.08C97.854 28.6728 98.8057 31.1479 100.28 33.31C104.66 39.24 110.08 39.24 110.08 39.24H110.22C110.22 39.24 115.63 39.24 120.02 33.31C121.494 31.1479 122.446 28.6728 122.8 26.08C122.8 26.08 123.15 23.19 123.12 22.27C123.12 22.18 123.12 22.11 123.12 22.05" fill="#1D1D1B"/>
<path d="M115.09 32.39C114.831 33.5404 114.22 34.5815 113.342 35.3683C112.464 36.1552 111.362 36.6486 110.19 36.78H110.07C108.898 36.6486 107.796 36.1552 106.918 35.3683C106.04 34.5815 105.429 33.5404 105.17 32.39V11.48C105.429 10.3296 106.04 9.28852 106.918 8.50168C107.796 7.71484 108.898 7.22137 110.07 7.09H110.19C111.362 7.22137 112.464 7.71484 113.342 8.50168C114.22 9.28852 114.831 10.3296 115.09 11.48V32.39ZM123.09 22.08V21.79C123.081 20.4518 122.984 19.1155 122.8 17.79C122.444 15.1947 121.492 12.7169 120.02 10.55C115.63 4.63002 110.22 4.63 110.22 4.63H110.08C110.08 4.63 104.66 4.63002 100.28 10.55C98.8078 12.7169 97.8564 15.1947 97.5 17.79C97.3106 19.115 97.2137 20.4516 97.21 21.79V22.08C97.2142 23.4184 97.3111 24.755 97.5 26.08C97.854 28.6728 98.8057 31.1479 100.28 33.31C104.66 39.24 110.08 39.24 110.08 39.24H110.22C110.22 39.24 115.63 39.24 120.02 33.31C121.494 31.1479 122.446 28.6728 122.8 26.08C122.8 26.08 123.15 23.19 123.12 22.27C123.12 22.18 123.12 22.11 123.12 22.05" fill="#1D1D1B"/>
<path d="M142.58 5.18994H149.97C150.067 5.23782 150.147 5.31366 150.2 5.40762C150.254 5.50159 150.278 5.60939 150.269 5.71707C150.26 5.82475 150.22 5.92736 150.152 6.01166C150.085 6.09596 149.993 6.15806 149.89 6.18994C149.169 6.73361 148.499 7.34288 147.89 8.00995C147.754 8.13898 147.645 8.29389 147.569 8.46561C147.494 8.63732 147.453 8.82238 147.45 9.00995V37.45C147.45 37.45 147.3 40.0799 145.4 37.1599L130.05 14.5599C130.05 14.5599 129.05 13.0999 129.05 14.7799V34.3799C129.173 34.9631 129.419 35.5131 129.773 35.9928C130.127 36.4724 130.579 36.8704 131.1 37.1599C131.1 37.1599 132.27 38.0299 130.96 38.4699H124.3C124.3 38.4699 122.62 37.9599 124.23 36.9399C124.23 36.9399 126.23 35.7699 126.23 34.3099V9.50995C126.255 8.86169 126.077 8.22181 125.72 7.67993C125.72 7.67993 124.4 5.91995 124.04 5.91995C124.04 5.91995 123.38 5.33994 124.11 5.18994H131.86C132.242 5.33431 132.572 5.58829 132.81 5.91995L144.22 22.74C144.22 22.74 144.65 23.04 144.65 21.86V8.99994C144.65 8.99994 144.58 7.89996 144.29 7.82996C143.811 7.23846 143.272 6.69882 142.68 6.21994C142.68 6.21994 141.73 5.48994 142.68 5.21994" fill="#1D1D1B"/>
<path d="M142.58 5.18994H149.97C150.067 5.23782 150.147 5.31366 150.2 5.40762C150.254 5.50159 150.278 5.60939 150.269 5.71707C150.26 5.82475 150.22 5.92736 150.152 6.01166C150.085 6.09596 149.993 6.15806 149.89 6.18994C149.169 6.73361 148.499 7.34288 147.89 8.00995C147.754 8.13898 147.645 8.29389 147.569 8.46561C147.494 8.63732 147.453 8.82238 147.45 9.00995V37.45C147.45 37.45 147.3 40.0799 145.4 37.1599L130.05 14.5599C130.05 14.5599 129.05 13.0999 129.05 14.7799V34.3799C129.173 34.9631 129.419 35.5131 129.773 35.9928C130.127 36.4724 130.579 36.8704 131.1 37.1599C131.1 37.1599 132.27 38.0299 130.96 38.4699H124.3C124.3 38.4699 122.62 37.9599 124.23 36.9399C124.23 36.9399 126.23 35.7699 126.23 34.3099V9.50995C126.255 8.86169 126.077 8.22181 125.72 7.67993C125.72 7.67993 124.4 5.91995 124.04 5.91995C124.04 5.91995 123.38 5.33994 124.11 5.18994H131.86C132.242 5.33431 132.572 5.58829 132.81 5.91995L144.22 22.74C144.22 22.74 144.65 23.04 144.65 21.86V8.99994C144.65 8.99994 144.58 7.89996 144.29 7.82996C143.811 7.23846 143.272 6.69882 142.68 6.21994C142.68 6.21994 141.73 5.48994 142.68 5.21994" fill="#1D1D1B"/>
<path d="M152.24 5.18994H163.93C163.93 5.18994 164.59 5.55995 163.93 6.06995C163.93 6.06995 161.81 7.37994 161.81 7.74994C161.656 8.06382 161.558 8.40225 161.52 8.74994V34.4799C161.566 34.938 161.692 35.3845 161.89 35.8C162.416 36.5291 163.1 37.1306 163.89 37.5599C163.89 37.5599 164.33 38.1399 163.82 38.4299H152.31C152.31 38.4299 151.5 38.1399 152.16 37.4799C152.891 36.9553 153.577 36.3699 154.21 35.7299C154.392 35.3379 154.491 34.9122 154.5 34.4799V8.55994C154.471 8.27019 154.372 7.99198 154.21 7.74994C153.726 6.98335 153.007 6.394 152.16 6.06995C152.16 6.06995 151.43 5.48994 152.24 5.18994Z" fill="#1D1D1B"/>
<path d="M152.24 5.18994H163.93C163.93 5.18994 164.59 5.55995 163.93 6.06995C163.93 6.06995 161.81 7.37994 161.81 7.74994C161.656 8.06382 161.558 8.40225 161.52 8.74994V34.4799C161.566 34.938 161.692 35.3845 161.89 35.8C162.416 36.5291 163.1 37.1306 163.89 37.5599C163.89 37.5599 164.33 38.1399 163.82 38.4299H152.31C152.31 38.4299 151.5 38.1399 152.16 37.4799C152.891 36.9553 153.577 36.3699 154.21 35.7299C154.392 35.3379 154.491 34.9122 154.5 34.4799V8.55994C154.471 8.27019 154.372 7.99198 154.21 7.74994C153.726 6.98335 153.007 6.394 152.16 6.06995C152.16 6.06995 151.43 5.48994 152.24 5.18994Z" fill="#1D1D1B"/>
<path d="M165.54 4.10001C165.54 4.10001 165.83 0 169.64 0C169.64 0 173.81 1.95503e-05 173.81 5.27002C173.81 5.27002 172.81 13.09 167.95 14.04C167.95 14.04 166.56 13.96 167.74 12.8C167.74 12.8 170.15 10.53 170.37 8.05002C170.37 8.05002 170.29 7.53999 169.71 7.89999C169.71 7.89999 167.37 9.29 165.83 6.22C165.602 5.53754 165.504 4.81856 165.54 4.10001Z" fill="#1D1D1B"/>
<path d="M165.54 4.10001C165.54 4.10001 165.83 0 169.64 0C169.64 0 173.81 1.95503e-05 173.81 5.27002C173.81 5.27002 172.81 13.09 167.95 14.04C167.95 14.04 166.56 13.96 167.74 12.8C167.74 12.8 170.15 10.53 170.37 8.05002C170.37 8.05002 170.29 7.53999 169.71 7.89999C169.71 7.89999 167.37 9.29 165.83 6.22C165.602 5.53754 165.504 4.81856 165.54 4.10001Z" fill="#1D1D1B"/>
<path d="M192.67 7.81997L189.82 14.19C189.82 14.19 189.01 14.85 188.82 13.6C188.82 13.6 186.63 7.67995 181.73 7.67995C181.73 7.67995 176.4 8.18998 178.15 13.46C178.15 13.46 179.25 16.31 184.95 17.62C184.95 17.62 190.8 19.67 192.7 23.4C193.395 24.7939 193.769 26.3257 193.795 27.883C193.821 29.4403 193.498 30.9836 192.85 32.4C191.811 34.3101 190.263 35.895 188.377 36.9788C186.492 38.0626 184.344 38.603 182.17 38.54C182.17 38.54 175.45 38.47 171.64 35.03C171.64 35.03 171.2 34.67 171.57 34.31L174.57 28.16C174.57 28.16 175.01 27.43 175.57 28.23C176.057 30.1283 177.107 31.8351 178.581 33.1269C180.055 34.4188 181.884 35.2355 183.83 35.47C183.83 35.47 190.19 35.62 188.66 29.55C188.66 29.55 187.85 27.29 181.06 24.65C181.06 24.65 173.06 21.95 173.06 14.56C173.146 12.318 173.934 10.1597 175.312 8.389C176.689 6.61831 178.588 5.32454 180.74 4.68996C184.791 4.08034 188.928 4.93099 192.41 7.08996C192.529 7.16563 192.621 7.27694 192.673 7.40801C192.725 7.53909 192.735 7.68325 192.7 7.81997" fill="#1D1D1B"/>
<path d="M192.67 7.81997L189.82 14.19C189.82 14.19 189.01 14.85 188.82 13.6C188.82 13.6 186.63 7.67995 181.73 7.67995C181.73 7.67995 176.4 8.18998 178.15 13.46C178.15 13.46 179.25 16.31 184.95 17.62C184.95 17.62 190.8 19.67 192.7 23.4C193.395 24.7939 193.769 26.3257 193.795 27.883C193.821 29.4403 193.498 30.9836 192.85 32.4C191.811 34.3101 190.263 35.895 188.377 36.9788C186.492 38.0626 184.344 38.603 182.17 38.54C182.17 38.54 175.45 38.47 171.64 35.03C171.64 35.03 171.2 34.67 171.57 34.31L174.57 28.16C174.57 28.16 175.01 27.43 175.57 28.23C176.057 30.1283 177.107 31.8351 178.581 33.1269C180.055 34.4188 181.884 35.2355 183.83 35.47C183.83 35.47 190.19 35.62 188.66 29.55C188.66 29.55 187.85 27.29 181.06 24.65C181.06 24.65 173.06 21.95 173.06 14.56C173.146 12.318 173.934 10.1597 175.312 8.389C176.689 6.61831 178.588 5.32454 180.74 4.68996C184.791 4.08034 188.928 4.93099 192.41 7.08996C192.529 7.16563 192.621 7.27694 192.673 7.40801C192.725 7.53909 192.735 7.68325 192.7 7.81997" fill="#1D1D1B"/>
<path d="M21.49 64.32C19.7266 62.4208 18.7693 59.9112 18.82 57.32C18.7833 54.8669 19.6971 52.4946 21.37 50.7C22.1907 49.8832 23.1664 49.2386 24.2396 48.8041C25.3129 48.3696 26.4622 48.1541 27.62 48.17C29.3771 48.196 31.0984 48.671 32.62 49.55C32.95 49.75 33.07 49.72 33.12 49.55L33.32 48.82C33.37 48.67 33.42 48.67 33.65 48.67C33.88 48.67 33.92 48.72 33.92 49.07C33.92 49.42 34.42 53.22 34.55 53.92C34.55 54.05 34.55 54.15 34.45 54.17L34.07 54.27C33.95 54.27 33.9 54.27 33.82 54.07C33.3708 52.9232 32.7092 51.8715 31.87 50.97C31.3241 50.3606 30.6548 49.8742 29.9065 49.5432C29.1583 49.2121 28.3482 49.044 27.53 49.05C23.05 49.05 21.25 53.05 21.28 56.67C21.2988 59.0259 22.1487 61.2995 23.68 63.09C24.2453 63.8082 24.9793 64.3757 25.8166 64.7421C26.654 65.1084 27.5689 65.2623 28.48 65.19C29.6855 65.1851 30.8727 64.8954 31.945 64.3445C33.0172 63.7937 33.9441 62.9972 34.65 62.02C34.72 61.89 34.77 61.87 34.85 61.94L35.17 62.19C35.25 62.24 35.3 62.29 35.22 62.42C34.4249 63.6817 33.3288 64.726 32.0302 65.4591C30.7315 66.1922 29.271 66.5911 27.78 66.62C26.6319 66.669 25.4853 66.4911 24.406 66.0964C23.3266 65.7017 22.3358 65.0981 21.49 64.32Z" fill="#1D1D1B"/>
<path d="M38.82 58.96C38.82 58.11 38.67 57.66 37.42 57.46C37.24 57.46 37.19 57.39 37.19 57.28V57.06C37.19 56.99 37.24 56.94 37.37 56.89C38.2994 56.5478 39.2019 56.1366 40.07 55.66C40.2117 55.5715 40.3733 55.52 40.54 55.51C40.67 55.51 40.69 55.64 40.67 55.81C40.62 56.24 40.62 57.81 40.62 59.88V62.61C40.62 63.61 40.62 64.48 40.62 64.76C40.62 65.23 40.75 65.41 41.02 65.41H42.17C42.37 65.41 42.42 65.48 42.42 65.63V66.06C42.42 66.23 42.42 66.31 42.2 66.31C41.98 66.31 40.85 66.23 39.8 66.23C38.35 66.23 37.37 66.31 37.1 66.31C36.83 66.31 36.9 66.26 36.9 66.11V65.61C36.9 65.46 36.97 65.41 37.15 65.41H38.41C38.69 65.41 38.79 65.31 38.81 64.91C38.81 64.16 38.81 63.38 38.81 62.63L38.82 58.96ZM37.69 51.32C37.7012 51.1328 37.7501 50.9497 37.8339 50.7819C37.9177 50.614 38.0346 50.4649 38.1775 50.3434C38.3205 50.2219 38.4865 50.1307 38.6657 50.0751C38.8449 50.0195 39.0334 50.0008 39.22 50.02C39.3862 50.012 39.5522 50.0374 39.7084 50.0948C39.8645 50.1523 40.0074 50.2405 40.1287 50.3544C40.25 50.4682 40.3472 50.6053 40.4144 50.7574C40.4816 50.9096 40.5175 51.0737 40.52 51.24C40.5232 51.4281 40.4873 51.6148 40.4147 51.7884C40.342 51.9619 40.2341 52.1184 40.0978 52.2481C39.9615 52.3778 39.7998 52.4779 39.6229 52.5419C39.446 52.6059 39.2577 52.6325 39.07 52.62C38.7209 52.6092 38.3878 52.4711 38.1336 52.2316C37.8794 51.9921 37.7216 51.6678 37.69 51.32Z" fill="#1D1D1B"/>
<path d="M47.17 63.11C47.17 64.98 48.02 65.31 48.47 65.31C49.0386 65.3342 49.6045 65.221 50.12 64.98C50.1396 64.96 50.1629 64.9442 50.1887 64.9334C50.2144 64.9225 50.2421 64.9169 50.27 64.9169C50.298 64.9169 50.3256 64.9225 50.3514 64.9334C50.3771 64.9442 50.4005 64.96 50.42 64.98L50.54 65.21C50.5566 65.2302 50.5685 65.2538 50.575 65.2792C50.5814 65.3045 50.5823 65.3309 50.5776 65.3566C50.5728 65.3823 50.5625 65.4066 50.5474 65.4279C50.5323 65.4492 50.5127 65.467 50.49 65.48C49.7181 66.1375 48.7339 66.4928 47.72 66.48C47.1327 66.4607 46.5702 66.2392 46.1274 65.8529C45.6846 65.4666 45.3888 64.9392 45.29 64.36C45.29 63.36 45.37 61.13 45.37 60.78V60.32C45.37 59.87 45.37 58.2 45.42 57.15H43.89C43.67 57.15 43.52 57.05 43.52 56.85C43.52 56.65 43.67 56.58 43.97 56.4C45.1103 55.5392 46.0773 54.4704 46.82 53.25C46.8389 53.1733 46.8845 53.106 46.9487 53.0601C47.0129 53.0143 47.0915 52.9929 47.17 53C47.37 53 47.42 53.18 47.42 53.38L47.29 55.85H50.77C50.7993 55.8449 50.8293 55.8481 50.8569 55.8591C50.8844 55.8702 50.9084 55.8887 50.926 55.9125C50.9436 55.9364 50.9543 55.9647 50.9568 55.9943C50.9592 56.0238 50.9535 56.0535 50.94 56.08L50.69 56.95C50.69 57.08 50.62 57.15 50.47 57.15H47.24C47.19 58.3 47.17 59.5 47.17 60.65V63.11Z" fill="#1D1D1B"/>
<path d="M51.2699 71.76C51.2978 71.478 51.4324 71.2174 51.6462 71.0314C51.86 70.8455 52.1368 70.7484 52.42 70.76C52.8142 70.8007 53.2011 70.8949 53.5699 71.04C53.6623 71.0567 53.7573 71.0518 53.8475 71.0258C53.9377 70.9998 54.0206 70.9533 54.0899 70.89C54.8701 69.5192 55.5389 68.0879 56.0899 66.61C55.9699 65.99 53.3199 58.19 53.0899 57.67C52.8599 57.15 52.5599 56.62 51.9099 56.62H51.2599C51.0899 56.62 51.0599 56.54 51.0599 56.39V55.89C51.0599 55.79 51.0599 55.72 51.2599 55.72C51.4599 55.72 52.0899 55.79 53.5599 55.79C54.8399 55.79 55.61 55.72 55.89 55.72C56.17 55.72 56.11 55.79 56.11 55.89V56.42C56.11 56.54 56.1099 56.62 55.9599 56.62H55.4899C55.2099 56.62 55.1099 56.79 55.1599 57.17C55.2399 57.72 56.9399 63.17 57.2099 63.76H57.3099C57.5599 63.36 59.74 58.19 59.89 57.57C60.04 56.95 59.8399 56.62 59.4599 56.62H59.0599C58.9099 56.62 58.89 56.54 58.89 56.42V55.92C58.89 55.79 58.8899 55.72 59.0399 55.72C59.3599 55.72 59.8899 55.79 61.0399 55.79C61.7099 55.79 62.2899 55.72 62.5599 55.72C62.8299 55.72 62.7099 55.82 62.7099 55.92V56.39C62.7099 56.54 62.71 56.62 62.58 56.62H62.1799C62.01 56.6227 61.843 56.6647 61.6921 56.7428C61.5411 56.8209 61.4103 56.9329 61.3099 57.07C59.8492 59.7921 58.5406 62.593 57.39 65.46C56.16 68.24 55.1899 70.56 54.7399 71.39C54.5931 71.8454 54.3102 72.2449 53.9294 72.5345C53.5485 72.8242 53.088 72.9901 52.61 73.01C51.74 73.03 51.2699 72.51 51.2699 71.76Z" fill="#1D1D1B"/>
<path d="M70.79 64.81C70.2879 64.2366 69.9084 63.5666 69.6747 62.8412C69.441 62.1158 69.3582 61.3502 69.4313 60.5916C69.5043 59.833 69.7317 59.0973 70.0995 58.4298C70.4673 57.7623 70.9677 57.1771 71.57 56.71C72.519 55.943 73.6998 55.52 74.92 55.51C76.2224 55.5462 77.4654 56.0626 78.41 56.96C78.9574 57.4855 79.3908 58.118 79.6833 58.8182C79.9758 59.5184 80.121 60.2713 80.11 61.03C80.0599 62.4762 79.4616 63.8492 78.4366 64.8706C77.4115 65.8919 76.0363 66.4852 74.5899 66.53C73.8701 66.5338 73.1579 66.382 72.502 66.0852C71.8462 65.7883 71.2622 65.3534 70.79 64.81ZM78.01 60.81C78.01 58.04 76.01 56.29 74.72 56.29C74.3589 56.2707 73.9982 56.3326 73.6642 56.471C73.3302 56.6094 73.0315 56.8209 72.79 57.09C72.298 57.608 71.925 58.2272 71.697 58.9042C71.4691 59.5813 71.3915 60.2999 71.47 61.01C71.3728 62.2514 71.7085 63.4881 72.42 64.51C72.6782 64.9274 73.0434 65.2681 73.4778 65.4967C73.9121 65.7253 74.3997 65.8334 74.89 65.81C76.79 65.78 78.01 63.46 78.01 60.78V60.81Z" fill="#1D1D1B"/>
<path d="M83.6701 57.01H81.9401C81.8201 57.01 81.7701 56.96 81.8201 56.74L81.9201 55.99C81.9201 55.84 82.0201 55.81 82.2201 55.81H83.6701V55.32C83.5544 53.4385 84.1505 51.5823 85.3401 50.12C85.8352 49.5066 86.4591 49.0095 87.1676 48.6639C87.8761 48.3183 88.6519 48.1326 89.4401 48.12C90.6101 48.12 91.7101 48.57 91.7101 49.52C91.6847 49.7929 91.5666 50.0488 91.3756 50.2453C91.1846 50.4417 90.9321 50.5669 90.6601 50.6C90.4184 50.6035 90.1791 50.5522 89.9601 50.45C89.7349 50.288 89.5359 50.0924 89.3701 49.87C89.2389 49.6889 89.0657 49.5425 88.8654 49.4432C88.665 49.3439 88.4436 49.2948 88.2201 49.3C87.8597 49.2821 87.5004 49.3519 87.1729 49.5034C86.8455 49.655 86.5597 49.8837 86.3401 50.17C85.4201 51.35 85.4701 53.52 85.4701 55.27V55.77H88.4701C88.6501 55.77 88.6701 55.92 88.6501 56.02L88.5201 56.85C88.5201 56.95 88.4001 56.97 88.2001 56.97H85.4501V59.2C85.4501 62.14 85.4501 64.44 85.4501 64.72C85.4501 65 85.5801 65.37 86.1001 65.37H87.5301C87.7501 65.37 87.8001 65.42 87.8001 65.57V65.97C87.8001 66.17 87.7501 66.27 87.6301 66.27C87.5101 66.27 86.5501 66.19 84.6301 66.19C83.2501 66.19 81.9801 66.27 81.7801 66.27C81.5801 66.27 81.5801 66.22 81.5801 66.09V65.54C81.5801 65.42 81.6301 65.37 81.8301 65.37H83.0301C83.5001 65.37 83.6001 65.07 83.6301 64.49V56.97L83.6701 57.01Z" fill="#1D1D1B"/>
<path d="M98.59 55.0399C98.59 53.4399 98.54 50.7899 98.52 50.3399C98.47 49.6899 98.34 49.4399 97.59 49.4399H96.41C96.26 49.4399 96.23 49.3099 96.23 49.1899V48.64C96.23 48.51 96.23 48.46 96.41 48.46C96.59 48.46 97.58 48.5399 99.66 48.5399C102.08 48.5399 103.13 48.46 103.36 48.46C103.59 48.46 103.58 48.5399 103.58 48.6599V49.24C103.58 49.36 103.53 49.4399 103.33 49.4399H101.83C101.06 49.4399 100.96 49.6899 100.96 50.4399C100.96 50.7699 100.88 54.5399 100.88 56.2899V58.4399C100.88 58.8599 100.88 64.2599 100.96 65.2899C101.51 65.3399 106.45 65.3899 107.23 65.2899C108.7 65.0599 110.23 62.0599 110.55 61.0899C110.6 60.9899 110.65 60.94 110.75 60.99L111.15 61.14C111.23 61.14 111.23 61.21 111.2 61.36C111.17 61.51 110.13 65.66 109.98 66.36C109.65 66.36 107.7 66.3099 105.48 66.3099C103.26 66.3099 100.81 66.3099 99.48 66.3099C98.48 66.3099 97.78 66.3099 97.25 66.3099L96.25 66.36C96.07 66.36 96.05 66.3099 96.05 66.1799V65.5599C96.05 65.4299 96.05 65.3799 96.22 65.3799H97.41C98.34 65.3799 98.49 65.03 98.49 64.71C98.49 64.23 98.56 58.01 98.56 56.49L98.59 55.0399Z" fill="#1D1D1B"/>
<path d="M112.77 64.81C112.266 64.2379 111.885 63.5686 111.649 62.8434C111.414 62.1181 111.33 61.3524 111.402 60.5934C111.474 59.8343 111.701 59.0982 112.069 58.4303C112.436 57.7624 112.937 57.1769 113.54 56.71C114.49 55.9444 115.67 55.5216 116.89 55.51C118.195 55.5456 119.442 56.062 120.39 56.96C120.936 57.4869 121.368 58.1197 121.66 58.8195C121.952 59.5194 122.099 60.2716 122.09 61.03C122.04 62.4779 121.44 63.8523 120.413 64.8739C119.386 65.8955 118.008 66.4877 116.56 66.53C115.842 66.5323 115.132 66.3799 114.477 66.0831C113.823 65.7863 113.241 65.3521 112.77 64.81ZM119.99 60.81C119.99 58.04 117.99 56.29 116.69 56.29C116.33 56.2708 115.971 56.3327 115.639 56.4712C115.306 56.6097 115.009 56.8212 114.77 57.09C114.275 57.606 113.899 58.2246 113.669 58.902C113.439 59.5794 113.361 60.2991 113.44 61.01C113.357 62.2573 113.711 63.4946 114.44 64.51C114.7 64.9282 115.067 65.2693 115.503 65.4979C115.939 65.7264 116.428 65.8342 116.92 65.81C118.76 65.78 119.99 63.46 119.99 60.78V60.81Z" fill="#1D1D1B"/>
<path d="M134.29 64.88C134.29 65.28 134.51 65.41 134.84 65.41H135.64C135.86 65.41 135.91 65.48 135.91 65.63V66.03C135.91 66.21 135.86 66.31 135.71 66.31C135.56 66.31 134.76 66.23 133.34 66.23C131.92 66.23 131.26 66.31 131.09 66.31C130.92 66.31 130.89 66.23 130.89 66.03V65.63C130.89 65.46 130.96 65.41 131.21 65.41H131.94C132.21 65.41 132.41 65.28 132.44 64.83C132.44 64.18 132.49 63.38 132.49 62.73V59.43C132.49 58.43 132.49 57.71 131.76 57.19C131.225 56.8299 130.581 56.6705 129.94 56.74C129.167 56.7958 128.448 57.1554 127.94 57.74C127.542 58.2143 127.338 58.8217 127.37 59.44V64.61C127.37 65.29 127.44 65.44 127.97 65.44H128.6C128.8 65.44 128.85 65.51 128.85 65.69V66.11C128.85 66.26 128.8 66.34 128.67 66.34C128.54 66.34 127.82 66.26 126.5 66.26C125.18 66.26 124.42 66.34 124.27 66.34C124.12 66.34 124.1 66.26 124.1 66.11V65.66C124.1 65.51 124.1 65.44 124.35 65.44H125.07C125.4 65.44 125.57 65.36 125.57 64.94V59.09C125.576 58.7716 125.483 58.4594 125.304 58.1961C125.124 57.9329 124.868 57.7316 124.57 57.62L124.37 57.52C124.19 57.44 124.17 57.37 124.17 57.29V57.17C124.17 57.04 124.27 56.97 124.39 56.92L126.54 55.72C126.678 55.6335 126.83 55.5726 126.99 55.54C127.12 55.54 127.17 55.64 127.19 55.84L127.37 57.37C127.789 56.8525 128.308 56.4241 128.895 56.1099C129.483 55.7956 130.127 55.6018 130.79 55.54C131.535 55.5136 132.272 55.7047 132.91 56.09C133.663 56.673 134.158 57.527 134.29 58.47V64.88Z" fill="#1D1D1B"/>
<path d="M145.71 51.01C145.71 50.06 145.54 49.76 144.14 49.54C143.99 49.54 143.96 49.46 143.96 49.36V48.94C143.96 48.84 144.01 48.79 144.16 48.76C145.16 48.56 146.44 48.3401 146.91 48.2401C147.102 48.2021 147.295 48.1753 147.49 48.16C147.61 48.16 147.64 48.34 147.61 48.61C147.54 49.86 147.51 53.49 147.51 56.61V62.13C147.451 62.899 147.535 63.6722 147.76 64.41C148.071 64.6667 148.457 64.8143 148.86 64.83C149.21 64.83 149.31 64.88 149.36 65.01L149.41 65.2101C149.41 65.3601 149.41 65.43 149.24 65.48L146.41 66.48C146.26 66.48 146.14 66.48 146.09 66.28L145.76 65.18C144.733 66.0464 143.434 66.5243 142.09 66.53C141.542 66.5861 140.989 66.5111 140.476 66.3111C139.963 66.1112 139.505 65.792 139.14 65.38C138.591 64.8665 138.164 64.2356 137.892 63.5344C137.62 62.8332 137.51 62.0797 137.57 61.33C137.564 60.5423 137.716 59.7615 138.017 59.0333C138.317 58.3052 138.76 57.6445 139.32 57.09C139.796 56.5823 140.373 56.1795 141.013 55.9074C141.654 55.6353 142.344 55.5 143.04 55.51C143.944 55.5031 144.844 55.6312 145.71 55.89V51.01ZM145.71 58.94C145.741 58.5181 145.665 58.0951 145.49 57.7101C145.226 57.2596 144.84 56.8934 144.376 56.6544C143.912 56.4153 143.39 56.3133 142.87 56.36C142.449 56.3478 142.03 56.4212 141.638 56.5759C141.246 56.7306 140.889 56.9634 140.59 57.26C139.8 58.1811 139.389 59.3677 139.44 60.58C139.44 63.41 141.44 65.4601 142.84 65.4601C143.375 65.4942 143.91 65.3842 144.388 65.1415C144.867 64.8988 145.271 64.5322 145.56 64.08C145.665 63.8093 145.716 63.5205 145.71 63.23V58.94Z" fill="#1D1D1B"/>
<path d="M152.92 64.81C152.416 64.2379 152.035 63.5686 151.799 62.8434C151.564 62.1181 151.48 61.3524 151.552 60.5934C151.624 59.8343 151.851 59.0982 152.219 58.4303C152.587 57.7624 153.087 57.1769 153.69 56.71C154.64 55.9444 155.82 55.5216 157.04 55.51C158.345 55.5456 159.592 56.062 160.54 56.96C161.086 57.4869 161.518 58.1197 161.81 58.8195C162.102 59.5194 162.249 60.2716 162.24 61.03C162.19 62.4779 161.59 63.8523 160.563 64.8739C159.536 65.8955 158.158 66.4877 156.71 66.53C155.992 66.5323 155.282 66.3799 154.628 66.0831C153.974 65.7863 153.391 65.3521 152.92 64.81ZM160.14 60.81C160.14 58.04 158.14 56.29 156.84 56.29C156.48 56.2708 156.121 56.3327 155.789 56.4712C155.456 56.6097 155.16 56.8212 154.92 57.09C154.425 57.606 154.049 58.2246 153.819 58.902C153.589 59.5794 153.511 60.2991 153.59 61.01C153.493 62.2514 153.829 63.4881 154.54 64.51C154.8 64.9282 155.167 65.2693 155.603 65.4979C156.039 65.7264 156.528 65.8342 157.02 65.81C158.91 65.78 160.14 63.46 160.14 60.78V60.81Z" fill="#1D1D1B"/>
<path d="M173.94 64.88C173.94 65.28 174.16 65.41 174.49 65.41H175.29C175.51 65.41 175.56 65.48 175.56 65.63V66.03C175.56 66.21 175.56 66.31 175.36 66.31C175.16 66.31 174.41 66.23 172.99 66.23C171.57 66.23 170.91 66.31 170.74 66.31C170.57 66.31 170.54 66.23 170.54 66.03V65.63C170.54 65.46 170.61 65.41 170.86 65.41H171.59C171.86 65.41 172.06 65.28 172.09 64.83C172.09 64.18 172.14 63.38 172.14 62.73V59.43C172.14 58.43 172.14 57.71 171.41 57.19C170.875 56.8299 170.231 56.6705 169.59 56.74C169.207 56.7666 168.833 56.8686 168.49 57.0402C168.147 57.2119 167.841 57.4497 167.59 57.74C167.19 58.2138 166.983 58.8206 167.01 59.44V64.61C167.01 65.29 167.09 65.44 167.61 65.44H168.23C168.43 65.44 168.48 65.51 168.48 65.69V66.11C168.48 66.26 168.43 66.34 168.31 66.34C168.19 66.34 167.46 66.26 166.14 66.26C164.82 66.26 164.06 66.34 163.91 66.34C163.76 66.34 163.74 66.26 163.74 66.11V65.66C163.74 65.51 163.79 65.44 163.99 65.44H164.71C165.04 65.44 165.21 65.36 165.21 64.94V59.09C165.216 58.7716 165.123 58.4594 164.944 58.1961C164.764 57.9329 164.508 57.7316 164.21 57.62L164.01 57.52C163.83 57.44 163.81 57.37 163.81 57.29V57.17C163.81 57.04 163.91 56.97 164.03 56.92L166.18 55.72C166.318 55.6335 166.47 55.5726 166.63 55.54C166.76 55.54 166.81 55.64 166.83 55.84L167.01 57.37H167.06C167.479 56.8525 167.998 56.4241 168.585 56.1099C169.173 55.7956 169.817 55.6018 170.48 55.54C171.225 55.5136 171.962 55.7047 172.6 56.09C173.353 56.673 173.848 57.527 173.98 58.47L173.94 64.88Z" fill="#1D1D1B"/>
</g>
<defs>
<clipPath id="clip0_51_297">
<rect width="193.76" height="73.03" fill="white"/>
</clipPath>
</defs>
</svg>
